HIERARCHY
ROOT Hips
{
	OFFSET 0.00000 0.00000 0.00000
	CHANNELS 6 Xposition Yposition Zposition Zrotation Yrotation Xrotation 
	JOINT LHipJoint
	{
		OFFSET 0 0 0
		CHANNELS 3 Zrotation Yrotation Xrotation
		JOINT LeftUpLeg
		{
			OFFSET 1.75344 -1.53157 0.77399
			CHANNELS 3 Zrotation Yrotation Xrotation
			JOINT LeftLeg
			{
				OFFSET 2.25415 -6.19323 0.00000
				CHANNELS 3 Zrotation Yrotation Xrotation
				JOINT LeftFoot
				{
					OFFSET 2.30342 -6.32861 0.00000
					CHANNELS 3 Zrotation Yrotation Xrotation
					JOINT LeftToeBase
					{
						OFFSET 0.10958 -0.30108 1.49206
						CHANNELS 3 Zrotation Yrotation Xrotation
						End Site
						{
							OFFSET 0.00000 -0.00000 0.77783
						}
					}
				}
			}
		}
	}
	JOINT RHipJoint
	{
		OFFSET 0 0 0
		CHANNELS 3 Zrotation Yrotation Xrotation
		JOINT RightUpLeg
		{
			OFFSET -1.81912 -1.53156 0.77399
			CHANNELS 3 Zrotation Yrotation Xrotation
			JOINT RightLeg
			{
				OFFSET -2.22882 -6.12365 0.00000
				CHANNELS 3 Zrotation Yrotation Xrotation
				JOINT RightFoot
				{
					OFFSET -2.21943 -6.09785 0.00000
					CHANNELS 3 Zrotation Yrotation Xrotation
					JOINT RightToeBase
					{
						OFFSET -0.18931 -0.52012 1.59379
						CHANNELS 3 Zrotation Yrotation Xrotation
						End Site
						{
							OFFSET -0.00000 -0.00000 0.84686
						}
					}
				}
			}
		}
	}
	JOINT LowerBack
	{
		OFFSET 0 0 0
		CHANNELS 3 Zrotation Yrotation Xrotation
		JOINT Spine
		{
			OFFSET -0.00200 1.66634 -0.14248
			CHANNELS 3 Zrotation Yrotation Xrotation
			JOINT Spine1
			{
				OFFSET -0.00875 1.64542 0.09514
				CHANNELS 3 Zrotation Yrotation Xrotation
				JOINT Neck
				{
					OFFSET 0 0 0
					CHANNELS 3 Zrotation Yrotation Xrotation
					JOINT Neck1
					{
						OFFSET 0.02257 1.59605 0.00839
						CHANNELS 3 Zrotation Yrotation Xrotation
						JOINT Head
						{
							OFFSET -0.10214 1.57530 -0.23335
							CHANNELS 3 Zrotation Yrotation Xrotation
							End Site
							{
								OFFSET -0.03588 1.60717 -0.08062
							}
						}
					}
				}
				JOINT LeftShoulder
				{
					OFFSET 0 0 0
					CHANNELS 3 Zrotation Yrotation Xrotation
					JOINT LeftArm
					{
						OFFSET 2.54983 1.10186 0.40078
						CHANNELS 3 Zrotation Yrotation Xrotation
						JOINT LeftForeArm
						{
							OFFSET 4.28840 -0.00000 0.00000
							CHANNELS 3 Zrotation Yrotation Xrotation
							JOINT LeftHand
							{
								OFFSET 3.06552 -0.00000 -0.00000
								CHANNELS 3 Zrotation Yrotation Xrotation
								JOINT LeftFingerBase
								{
									OFFSET 0 0 0
									CHANNELS 3 Zrotation Yrotation Xrotation
									JOINT LeftHandIndex1
									{
										OFFSET 0.75304 -0.00000 0.00000
										CHANNELS 3 Zrotation Yrotation Xrotation
										End Site
										{
											OFFSET 0.60712 -0.00000 0.00000
										}
									}
								}
								JOINT LThumb
								{
									OFFSET 0 0 0
									CHANNELS 3 Zrotation Yrotation Xrotation
									End Site
									{
										OFFSET 0.61639 -0.00000 0.61639
									}
								}
							}
						}
					}
				}
				JOINT RightShoulder
				{
					OFFSET 0 0 0
					CHANNELS 3 Zrotation Yrotation Xrotation
					JOINT RightArm
					{
						OFFSET -2.60909 1.35448 0.21802
						CHANNELS 3 Zrotation Yrotation Xrotation
						JOINT RightForeArm
						{
							OFFSET -4.52172 -0.00000 -0.00000
							CHANNELS 3 Zrotation Yrotation Xrotation
							JOINT RightHand
							{
								OFFSET -2.89140 -0.00000 0.00000
								CHANNELS 3 Zrotation Yrotation Xrotation
								JOINT RightFingerBase
								{
									OFFSET 0 0 0
									CHANNELS 3 Zrotation Yrotation Xrotation
									JOINT RightHandIndex1
									{
										OFFSET -0.68054 -0.00000 0.00000
										CHANNELS 3 Zrotation Yrotation Xrotation
										End Site
										{
											OFFSET -0.54867 -0.00000 0.00000
										}
									}
								}
								JOINT RThumb
								{
									OFFSET 0 0 0
									CHANNELS 3 Zrotation Yrotation Xrotation
									End Site
									{
										OFFSET -0.55705 -0.00000 0.55705
									}
								}
							}
						}
					}
				}
			}
		}
	}
}
MOTION
Frames: 6
Frame Time: .0083333
8.4865 15.1322 42.4414 0 0 0 0 0 0 -21 0 0 0 0 0 0 0 0 0 0 0 0 0 0 21 0 0 0 0 0 0 0 0 0 0 0 0 0 0 0 0 0 0 0 0 0 0 -16 0 0 21 0 0 11 0 0 0 -8 0 0 0 0 0 0 0 0 0 0 0 0 0 0 0 0 0 0 0 0 8 0 0 0 0 0 0 0 0 0 0 0 0 0 0 0 0 0
8.4865 15.1322 42.4414 -176.0500 4.9164 -179.0790 0.0000 0.0000 0.0000 -22.1168 -22.1505 -4.1025 3.1335 10.9081 31.9706 2.7154 13.3606 -38.0496 0.6621 -5.2041 -14.4917 0.0000 0.0000 0.0000 29.7849 18.2892 -1.7829 -1.8220 -8.4850 24.1973 -0.7470 -13.2053 -25.9249 -0.0320 -1.1549 3.1752 4.1223 1.3924 4.4084 0.6576 2.2871 -3.5704 -1.8456 1.0059 -6.0639 -3.9851 -0.5440 -8.6011 3.9135 0.3392 22.7719 2.1013 0.7276 8.4733 0.0000 0.0000 0.0000 -89.0365 9.9383 29.9831 25.3571 -36.5667 -8.5017 -0.0000 0.0000 -3.4273 9.3944 -35.7803 -5.5253 -7.1250 0.0000 -0.0000 -12.8747 -5.3663 14.3752 0.0000 0.0000 0.0000 84.7986 -13.3077 55.1174 -19.9043 30.5269 -5.4827 0.0000 0.0000 2.6106 134.2510 62.1209 -42.2191 7.1250 -0.0000 -0.0000 -172.5497 -50.0941 -0.9401
8.4866 15.1311 42.4441 -176.9490 5.0269 -179.5430 0.0000 0.0000 0.0000 -23.3260 -21.9632 -3.1494 2.9543 10.6206 31.0108 2.6576 13.4900 -37.8516 0.5940 -4.9341 -13.7206 0.0000 0.0000 0.0000 28.9377 18.2935 -1.9089 -1.9828 -8.8302 25.2656 -0.7832 -13.1449 -26.1497 -0.0186 -0.8813 2.4223 3.3261 1.3948 4.6463 0.4016 2.2039 -3.4212 -1.6638 0.9856 -6.0619 -2.9927 -0.5396 -7.4327 2.2423 0.4071 21.3329 1.3436 0.6338 7.7827 0.0000 -0.0000 0.0000 -89.0423 9.7806 29.4094 25.3181 -36.5274 -8.4785 -0.0000 0.0000 -2.7631 6.1932 -35.6866 -3.6221 -7.1250 0.0000 -0.0000 -14.5738 -4.8533 16.2707 0.0000 -0.0000 0.0000 84.8998 -13.2745 55.0044 -19.8810 30.4987 -5.4708 0.0000 0.0000 2.6520 133.4671 62.2569 -43.0368 7.1250 -0.0000 -0.0000 -172.7926 -49.7351 -0.8453
8.4910 15.1304 42.4502 -177.8030 5.1639 -180.0220 0.0000 0.0000 0.0000 -24.4387 -21.6295 -2.1934 2.7612 10.2980 29.9474 2.5297 13.8574 -37.4683 0.5565 -4.7786 -13.2782 0.0000 0.0000 0.0000 28.1640 18.4226 -1.9821 -2.1597 -9.1912 26.3952 -0.8934 -12.9014 -26.7595 -0.0210 -0.9350 2.5699 2.4250 1.4438 5.0156 0.1835 2.1812 -3.2677 -1.3928 1.0000 -6.1336 -3.3080 -0.3409 -8.0049 3.0538 0.6236 21.9875 1.7016 0.8075 8.0931 -0.0000 -0.0000 0.0000 -89.0025 9.6231 29.1639 25.2275 -36.4356 -8.4246 -0.0000 0.0000 -1.6293 4.2887 -35.7769 -2.5104 -7.1250 0.0000 -0.0000 -15.5876 -4.7197 17.4530 -0.0000 -0.0000 0.0000 84.9750 -13.1746 54.8807 -19.8630 30.4769 -5.4617 0.0000 0.0000 2.8116 132.6877 62.2995 -43.8279 7.1250 -0.0000 -0.0000 -173.0811 -49.4487 -0.7622
8.4968 15.1232 42.4586 -179.5650 5.2269 -181.0370 0.0000 0.0000 0.0000 -26.7135 -21.1950 -0.8514 2.6205 10.0538 29.1511 2.4532 14.0852 -37.2452 0.4757 -4.4233 -12.2706 0.0000 0.0000 0.0000 26.5403 18.3145 -1.4285 -2.2856 -9.4371 27.1725 -0.9994 -12.6805 -27.3435 -0.0404 -1.2972 3.5668 0.5071 1.5222 5.9707 -0.2167 2.0977 -3.0345 -0.7526 1.0186 -6.4887 -2.6590 -0.2437 -7.5944 2.1371 0.7905 21.3721 1.2876 0.8319 7.8151 0.0000 -0.0000 0.0000 -89.0169 9.5788 28.7833 25.1302 -36.3368 -8.3670 -0.0000 -0.0000 0.7349 3.0511 -36.0134 -1.7951 -7.1250 0.0000 -0.0000 -16.2500 -4.8150 18.2809 0.0000 -0.0000 0.0000 84.9593 -13.1618 54.8019 -19.8618 30.4754 -5.4611 0.0000 0.0000 2.8888 132.1356 62.1884 -44.3528 7.1250 -0.0000 -0.0000 -173.3695 -49.3535 -0.7146
8.4979 15.1234 42.4625 -179.5180 5.1647 -180.9350 0.0000 0.0000 0.0000 -26.6094 -21.2036 -0.7677 2.5397 9.9097 28.6848 2.3960 14.0812 -36.9499 0.4121 -4.1210 -11.4173 0.0000 0.0000 0.0000 26.5544 18.4837 -1.7488 -2.3614 -9.5813 27.6313 -1.1313 -12.4174 -28.0595 -0.0960 -1.9983 5.5010 0.5268 1.4886 5.8493 -0.1787 2.0577 -3.0566 -0.7163 1.0000 -6.4436 -2.8998 0.0368 -8.1543 2.9263 1.1102 21.9894 1.6354 1.0574 8.1065 -0.0000 -0.0000 0.0000 -88.9815 9.5596 28.0753 25.0884 -36.2942 -8.3422 -0.0000 -0.0000 3.6718 0.8563 -36.2634 -0.5065 -7.1250 0.0000 -0.0000 -17.4041 -4.8439 19.7099 -0.0000 -0.0000 0.0000 84.9645 -13.1805 54.5862 -19.8577 30.4706 -5.4590 0.0000 0.0000 3.2629 132.6197 62.2588 -43.8854 7.1250 -0.0000 -0.0000 -173.1331 -49.4583 -0.7581
